<svg width="157" height="46" viewBox="0 0 157 46" fill="none" xmlns="http://www.w3.org/2000/svg">
<path d="M12.755 25.49C9.115 25.49 6.28 24.4983 4.25 22.515C2.24333 20.5317 1.24 17.72 1.24 14.08V0.499998H8.17V13.87C8.17 17.79 9.72167 19.75 12.825 19.75C15.905 19.75 17.445 17.79 17.445 13.87V0.499998H24.27V14.08C24.27 17.72 23.255 20.5317 21.225 22.515C19.2183 24.4983 16.395 25.49 12.755 25.49ZM49.6847 19.505V25H27.7396V20.66L40.0946 5.995H28.0546V0.499998H49.1596V4.84L36.8046 19.505H49.6847ZM59.6495 5.855V11.245H70.4645V16.6H59.6495V25H52.7195V0.499998H71.9345V5.855H59.6495ZM90.6336 20.24H80.2736L78.3486 25H71.2786L82.0936 0.499998H88.9186L99.7686 25H92.5586L90.6336 20.24ZM88.6036 15.13L85.4536 7.29L82.3036 15.13H88.6036ZM112.443 18.49H108.663V25H101.733V0.499998H112.933C115.15 0.499998 117.075 0.873332 118.708 1.62C120.342 2.34333 121.602 3.39333 122.488 4.77C123.375 6.12333 123.818 7.72167 123.818 9.565C123.818 11.3383 123.398 12.89 122.558 14.22C121.742 15.5267 120.563 16.5533 119.023 17.3L124.308 25H116.888L112.443 18.49ZM116.818 9.565C116.818 8.42167 116.457 7.535 115.733 6.905C115.01 6.275 113.937 5.96 112.513 5.96H108.663V13.135H112.513C113.937 13.135 115.01 12.8317 115.733 12.225C116.457 11.595 116.818 10.7083 116.818 9.565ZM149.761 25L149.691 12.015L143.391 22.585H140.311L134.046 12.365V25H127.641V0.499998H133.346L141.956 14.64L150.356 0.499998H156.061L156.131 25H149.761ZM0.4758 35.01H5.28C6.45227 35.01 7.4937 35.2403 8.4043 35.7008C9.3149 36.1509 10.0214 36.7946 10.5238 37.6319C11.0262 38.4588 11.2774 39.4165 11.2774 40.505C11.2774 41.5935 11.0262 42.5565 10.5238 43.3938C10.0214 44.2207 9.3149 44.8644 8.4043 45.3249C7.4937 45.775 6.45227 46 5.28 46H0.4758V35.01ZM5.1858 44.273C5.99173 44.273 6.69823 44.1212 7.3053 43.8177C7.92283 43.5037 8.39383 43.0641 8.7183 42.4989C9.05323 41.9232 9.2207 41.2586 9.2207 40.505C9.2207 39.7514 9.05323 39.092 8.7183 38.5268C8.39383 37.9511 7.92283 37.5115 7.3053 37.208C6.69823 36.894 5.99173 36.737 5.1858 36.737H2.5168V44.273H5.1858ZM20.4212 43.4566H14.9262L13.8429 46H11.7391L16.6846 35.01H18.6942L23.6554 46H21.5202L20.4212 43.4566ZM19.7461 41.8552L17.6737 37.051L15.617 41.8552H19.7461ZM34.5184 35.01L29.7299 46H27.7203L22.9161 35.01H25.1298L28.7879 43.488L32.4774 35.01H34.5184ZM35.6781 35.01H37.7191V44.273H43.4653V46H35.6781V35.01ZM52.2811 43.4566H46.7861L45.7028 46H43.599L48.5445 35.01H50.5541L55.5153 46H53.3801L52.2811 43.4566ZM51.606 41.8552L49.5336 37.051L47.4769 41.8552H51.606ZM58.5905 36.737H54.9481V35.01H64.2739V36.737H60.6315V46H58.5905V36.737ZM77.0682 46L74.0852 41.8238L71.1336 46H68.81L72.892 40.3951L69.0298 35.01H71.3377L74.148 38.9193L76.9269 35.01H79.1406L75.2941 40.3166L79.4232 46H77.0682ZM87.6061 43.4566H82.1111L81.0278 46H78.924L83.8695 35.01H85.8791L90.8403 46H88.7051L87.6061 43.4566ZM86.931 41.8552L84.8586 37.051L82.8019 41.8552H86.931ZM99.4286 46L97.1835 42.7815C97.0893 42.792 96.948 42.7972 96.7596 42.7972H94.279V46H92.238V35.01H96.7596C97.7121 35.01 98.5389 35.167 99.2402 35.481C99.9519 35.795 100.496 36.2451 100.873 36.8312C101.25 37.4173 101.438 38.1134 101.438 38.9193C101.438 39.7462 101.234 40.4579 100.826 41.0545C100.428 41.6511 99.8525 42.0959 99.0989 42.389L101.627 46H99.4286ZM99.3815 38.9193C99.3815 38.218 99.1512 37.679 98.6907 37.3022C98.2302 36.9254 97.5551 36.737 96.6654 36.737H94.279V41.1173H96.6654C97.5551 41.1173 98.2302 40.9289 98.6907 40.5521C99.1512 40.1648 99.3815 39.6206 99.3815 38.9193ZM103.722 35.01H105.763V46H103.722V35.01ZM108.735 35.01H113.539C114.712 35.01 115.753 35.2403 116.664 35.7008C117.574 36.1509 118.281 36.7946 118.783 37.6319C119.286 38.4588 119.537 39.4165 119.537 40.505C119.537 41.5935 119.286 42.5565 118.783 43.3938C118.281 44.2207 117.574 44.8644 116.664 45.3249C115.753 45.775 114.712 46 113.539 46H108.735V35.01ZM113.445 44.273C114.251 44.273 114.958 44.1212 115.565 43.8177C116.182 43.5037 116.653 43.0641 116.978 42.4989C117.313 41.9232 117.48 41.2586 117.48 40.505C117.48 39.7514 117.313 39.092 116.978 38.5268C116.653 37.9511 116.182 37.5115 115.565 37.208C114.958 36.894 114.251 36.737 113.445 36.737H110.776V44.273H113.445ZM121.706 35.01H123.747V44.273H129.493V46H121.706V35.01ZM138.309 43.4566H132.814L131.731 46H129.627L134.573 35.01H136.582L141.543 46H139.408L138.309 43.4566ZM137.634 41.8552L135.562 37.051L133.505 41.8552H137.634ZM150.132 46L147.887 42.7815C147.792 42.792 147.651 42.7972 147.463 42.7972H144.982V46H142.941V35.01H147.463C148.415 35.01 149.242 35.167 149.943 35.481C150.655 35.795 151.199 36.2451 151.576 36.8312C151.953 37.4173 152.141 38.1134 152.141 38.9193C152.141 39.7462 151.937 40.4579 151.529 41.0545C151.131 41.6511 150.556 42.0959 149.802 42.389L152.33 46H150.132ZM150.085 38.9193C150.085 38.218 149.854 37.679 149.394 37.3022C148.933 36.9254 148.258 36.737 147.368 36.737H144.982V41.1173H147.368C148.258 41.1173 148.933 40.9289 149.394 40.5521C149.854 40.1648 150.085 39.6206 150.085 38.9193ZM154.425 35.01H156.466V46H154.425V35.01Z" fill="#294C82"/>
</svg>
