<svg width="46" height="56" viewBox="0 0 46 56" fill="none" xmlns="http://www.w3.org/2000/svg">
<path d="M17.481 20.4146H29.1761C29.6409 20.4146 30.0236 20.0384 30.0236 19.5671C30.0236 19.1022 29.6474 18.7195 29.1761 18.7195L17.481 18.7217C17.0161 18.7217 16.6334 19.0979 16.6334 19.5692C16.6356 20.0341 17.0161 20.4146 17.481 20.4146Z" fill="white"/>
<path d="M17.481 23.7916H29.1761C29.6409 23.7916 30.0236 23.4154 30.0236 22.944C30.0236 22.4792 29.6474 22.0965 29.1761 22.0965L17.481 22.0987C17.0161 22.0987 16.6334 22.4749 16.6334 22.9462C16.6356 23.4154 17.0161 23.7916 17.481 23.7916Z" fill="white"/>
<path d="M17.481 17.0333H29.1761C29.6409 17.0333 30.0236 16.6571 30.0236 16.1858C30.0236 15.7144 29.6474 15.3383 29.1761 15.3383L17.481 15.3404C17.0161 15.3404 16.6334 15.7166 16.6334 16.188C16.6356 16.6571 17.0161 17.0333 17.481 17.0333Z" fill="white"/>
<path d="M9.65374 13.684H10.3067L12.6808 25.1306C12.897 26.1662 13.8159 26.9122 14.8732 26.9122H31.3728C32.4301 26.9122 33.349 26.1641 33.5652 25.1306L35.9392 13.684H36.6874C37.5565 13.684 38.2658 12.9748 38.2658 12.1056V10.3672C38.2658 9.49804 37.5566 8.78883 36.6874 8.78883H33.5868L27.9654 0.572521C27.5567 -0.024219 26.7372 -0.179922 26.1383 0.228741L25.0032 1.00277C24.4065 1.41142 24.2508 2.2309 24.6594 2.8298L28.7329 8.78668H17.6046L21.6781 2.8298C22.0867 2.23306 21.9332 1.41359 21.3343 1.00277L20.1992 0.228741C19.6024 -0.179905 18.783 -0.0263944 18.3722 0.572521L12.7485 8.78662H9.64794C8.77876 8.78662 8.06955 9.49578 8.06955 10.365V12.1034C8.07171 12.9769 8.78092 13.6839 9.65442 13.6839L9.65374 13.684ZM31.9065 24.7824C31.8568 25.0311 31.6298 25.2148 31.3746 25.2148H14.8734C14.6182 25.2148 14.3912 25.0332 14.3415 24.7824L12.0345 13.684H34.2075L31.9065 24.7824ZM26.2718 2.18811L26.7821 1.84L31.5366 8.78711H30.7885L26.2718 2.18811ZM19.556 1.84L20.0663 2.18811L15.5496 8.78706H14.8014L19.556 1.84ZM9.76555 10.4797H36.5721V11.9911H9.76555V10.4797Z" fill="white"/>
<path d="M18.3848 34.3194C18.3848 36.8599 20.4497 38.9247 22.9902 38.9247C25.5307 38.9247 27.5956 36.8599 27.5956 34.3194C27.5956 31.7789 25.5307 29.714 22.9902 29.714C20.454 29.714 18.3848 31.7789 18.3848 34.3194ZM25.907 34.3194C25.907 35.9237 24.6011 37.2318 22.9946 37.2318C21.3903 37.2318 20.0822 35.9258 20.0822 34.3194C20.0822 32.7151 21.3882 31.407 22.9946 31.407C24.5989 31.407 25.907 32.7151 25.907 34.3194Z" fill="white"/>
<path d="M9.18933 34.6526C11.7298 34.6526 13.7947 32.5877 13.7947 30.0472C13.7947 27.5067 11.7298 25.4418 9.18933 25.4418C6.64882 25.4418 4.58395 27.5067 4.58395 30.0472C4.58395 32.5877 6.64882 34.6526 9.18933 34.6526ZM9.18933 27.1348C10.7936 27.1348 12.1017 28.4408 12.1017 30.0472C12.1017 31.6515 10.7958 32.9596 9.18933 32.9596C7.58503 32.9596 6.27692 31.6537 6.27692 30.0472C6.27908 28.4408 7.58503 27.1348 9.18933 27.1348Z" fill="white"/>
<path d="M32.5143 30.0469C32.5143 32.5874 34.5792 34.6523 37.1197 34.6523C39.6602 34.6523 41.725 32.5874 41.725 30.0469C41.725 27.5064 39.6602 25.4415 37.1197 25.4415C34.5856 25.4415 32.5143 27.5064 32.5143 30.0469ZM40.0365 30.0469C40.0365 31.6512 38.7305 32.9593 37.1241 32.9593C35.5198 32.9593 34.2117 31.6534 34.2117 30.0469C34.2117 28.4426 35.5176 27.1345 37.1241 27.1345C38.7305 27.1345 40.0365 28.4404 40.0365 30.0469Z" fill="white"/>
<path d="M45.9934 47.6706C45.8118 45.7009 45.3836 41.7918 45.3339 41.3379C45.3123 39.8158 44.2485 38.2828 42.268 36.9034C40.8064 35.8785 39.0636 35.3315 37.2301 35.3315H36.8755C35.0442 35.3315 33.2994 35.8742 31.8507 36.8969C29.8313 38.3023 28.7956 39.7963 28.774 41.3358C28.7675 41.3747 28.7632 41.446 28.7524 41.5455C28.7134 41.5174 28.6745 41.485 28.6313 41.4568C27.0378 40.3433 25.1394 39.7531 23.1459 39.7531H22.7589C20.7653 39.7531 18.867 40.339 17.2734 41.4568C17.2626 41.4677 17.2453 41.4741 17.2345 41.485L17.2172 41.3358C17.1956 39.8136 16.1319 38.285 14.1513 36.9012C12.6897 35.8763 10.947 35.3293 9.11345 35.3293H8.76534C6.92752 35.3293 5.1848 35.872 3.73404 36.8947C1.74705 38.2785 0.689736 39.8115 0.668094 41.3293C0.618365 41.7877 0.181608 45.6903 0.00864187 47.6515C-0.0410877 48.1618 0.125399 48.6764 0.467015 49.0569C0.815123 49.4439 1.30807 49.6601 1.82915 49.6601H13.563C13.4311 50.9272 13.2928 52.2893 13.2041 53.2363C13.1544 53.7725 13.336 54.3109 13.7014 54.7152C14.0668 55.1131 14.5879 55.3466 15.1284 55.3466H30.7761C31.3188 55.3466 31.8399 55.113 32.2032 54.7152C32.5686 54.3174 32.7502 53.779 32.7005 53.2363C32.6118 52.2893 32.4734 50.9271 32.3415 49.6601H44.175C44.6853 49.6601 45.1761 49.4439 45.5264 49.0634C45.8658 48.6937 46.0366 48.1852 45.9934 47.6706ZM1.82268 47.9798C1.76646 47.9798 1.73402 47.9517 1.71673 47.9366C1.68862 47.9085 1.67781 47.876 1.6843 47.8263C1.86591 45.7614 2.34375 41.5323 2.34806 41.4892C2.35455 41.4567 2.35455 41.4286 2.35455 41.394C2.35455 40.447 3.18482 39.3508 4.7005 38.2935C5.86807 37.4697 7.27343 37.0308 8.76315 37.0308H9.11126C10.5945 37.0308 11.9999 37.4676 13.1804 38.2935C14.6918 39.3443 15.5221 40.447 15.5221 41.3875C15.5221 41.4199 15.5221 41.448 15.5286 41.4826L15.6734 42.7777C14.534 43.9129 13.9459 45.0869 13.9308 46.2761C13.9135 46.4469 13.8356 47.0999 13.7426 47.9755H1.8228L1.82268 47.9798ZM30.949 53.5819C30.9208 53.61 30.8603 53.6597 30.7673 53.6597H15.124C15.0289 53.6597 14.9683 53.61 14.9424 53.5819C14.91 53.5495 14.8754 53.4868 14.8819 53.4003C15.0873 51.1257 15.6062 46.4703 15.6127 46.4211C15.6191 46.3886 15.6191 46.3605 15.6191 46.3259C15.6191 45.3962 16.2829 44.5054 17.0807 43.7681C17.1024 43.7508 17.124 43.7292 17.1478 43.7076C17.5024 43.3876 17.8786 43.0978 18.2375 42.8492C19.55 41.9368 21.111 41.4481 22.7543 41.4481H23.1413C24.7846 41.4481 26.3521 41.9303 27.6581 42.8492C28.0451 43.1195 28.4559 43.4351 28.8364 43.7897C28.8537 43.807 28.8645 43.8178 28.8797 43.8286C29.6494 44.553 30.2742 45.4221 30.2742 46.3259C30.2742 46.3583 30.2742 46.3864 30.2807 46.421C30.2872 46.4643 30.8018 51.1259 31.0115 53.4003C31.0202 53.4867 30.9814 53.5473 30.949 53.5819ZM44.2659 47.93C44.2486 47.9516 44.2161 47.9733 44.1664 47.9733H32.1558C32.0606 47.1041 31.9893 46.4446 31.9677 46.2738C31.9504 45.1105 31.3925 43.9646 30.3071 42.8533C30.4023 42.0338 30.4628 41.4695 30.4628 41.4695C30.4693 41.4414 30.4693 41.409 30.4693 41.3809C30.4693 40.4403 31.306 39.3376 32.8282 38.2803C33.9958 37.4565 35.4011 37.0176 36.8844 37.0176H37.239C38.7222 37.0176 40.1276 37.4544 41.3082 38.2803C42.8195 39.3311 43.6498 40.4338 43.6498 41.3743C43.6498 41.4068 43.6498 41.4349 43.6563 41.4695C43.6628 41.5127 44.1319 45.7419 44.32 47.8066C44.3114 47.8736 44.2875 47.9084 44.2659 47.93Z" fill="white"/>
</svg>
