<svg width="50" height="50" viewBox="0 0 50 50" fill="none" xmlns="http://www.w3.org/2000/svg">
<path d="M45.3184 29.9477H41.9712V28.3081C41.9712 26.6842 40.6493 25.3635 39.0241 25.3635H36.9583V23.0342C36.9583 18.5551 33.3109 14.9108 28.828 14.9108H23.5323C25.5166 13.3899 26.799 10.9991 26.799 8.31302C26.799 3.72941 23.0664 0 18.4789 0C13.8914 0 10.1593 3.72941 10.1593 8.31302C10.1593 10.9991 11.4417 13.3899 13.426 14.9108H8.13029C3.64741 14.9108 0 18.5551 0 23.0342V37.6408C0 38.1146 0.384353 38.4987 0.858615 38.4987H22.1994V45.3218C22.1994 47.9013 24.2999 50 26.881 50H45.3184C47.9 50 50 47.9013 50 45.3218V34.6253C50.0005 32.0459 47.9 29.9477 45.3184 29.9477ZM36.9583 27.0788H39.0241C39.7024 27.0788 40.2545 27.6304 40.2545 28.3081V29.9477H36.9583V27.0788ZM11.876 8.31302C11.876 4.67502 14.8383 1.71524 18.4794 1.71524C22.1205 1.71524 25.0828 4.67502 25.0828 8.31302C25.0828 11.951 22.1205 14.9108 18.4794 14.9108C14.8383 14.9108 11.876 11.951 11.876 8.31302ZM18.9695 16.626L21.377 28.8954L18.4794 31.7081L15.5818 28.8954L17.9894 16.626H18.9695ZM22.1994 34.6253V36.7829H8.98891V25.0236C8.98891 24.5498 8.60455 24.1658 8.13029 24.1658C7.65603 24.1658 7.27168 24.5498 7.27168 25.0236V36.7829H1.7167V23.0342C1.7167 19.5007 4.59383 16.626 8.13029 16.626H16.2396L13.8072 29.022C13.7515 29.3068 13.8435 29.5999 14.0512 29.8022L17.8805 33.5195C18.0472 33.6813 18.2628 33.7622 18.4789 33.7622C18.695 33.7622 18.9106 33.6813 19.0772 33.5195L22.9066 29.8022C23.1148 29.5999 23.2068 29.3068 23.1505 29.022L20.7188 16.626H28.828C32.3645 16.626 35.2416 19.5007 35.2416 23.0342V25.3635H33.1758C31.5506 25.3635 30.2287 26.6842 30.2287 28.3081V29.9477H29.6866V25.0236C29.6866 24.5498 29.3023 24.1658 28.828 24.1658C28.3538 24.1658 27.9694 24.5498 27.9694 25.0236V29.9477H26.881C24.2994 29.9477 22.1994 32.0459 22.1994 34.6253ZM35.2416 27.0788V29.9477H31.9454V28.3081C31.9454 27.6304 32.4975 27.0788 33.1758 27.0788H35.2416ZM48.2838 45.3218C48.2838 46.9556 46.9536 48.2848 45.3189 48.2848H26.881C25.2458 48.2848 23.9161 46.9556 23.9161 45.3218V37.5499H48.2838V45.3218ZM48.2838 35.8347H23.9161V34.6253C23.9161 32.9915 25.2463 31.6629 26.881 31.6629H45.3184C46.9536 31.6629 48.2833 32.992 48.2833 34.6253L48.2838 35.8347Z" fill="white"/>
</svg>
