<svg width="65" height="60" viewBox="0 0 65 60" fill="none" xmlns="http://www.w3.org/2000/svg">
<path fill-rule="evenodd" clip-rule="evenodd" d="M31.6312 40.585V3.68166C27.6645 2.37754 23.1645 1.72544 18.6593 1.72544C14.1538 1.72544 9.65381 2.3775 5.68735 3.68166V40.5879C9.33235 39.5732 14.0016 39.0645 18.6593 39.0645C23.317 39.0645 27.9861 39.5732 31.6312 40.5879V40.585ZM3.95834 6.63816V41.7484C3.95834 42.2234 4.34484 42.6113 4.82443 42.6113C4.93164 42.6113 5.0332 42.5916 5.12912 42.5579C8.72899 41.3774 13.6889 40.7872 18.6622 40.7872C23.3821 40.7872 28.0909 41.3184 31.6341 42.3808V44.7164C27.4616 43.5304 22.0675 42.9373 16.6819 42.9373V42.9345C11.3018 42.9345 5.90768 43.5275 1.72961 44.7164L1.72678 7.30441C2.15843 7.16107 2.59851 7.02336 3.04427 6.89407C3.34896 6.80413 3.65367 6.71967 3.95834 6.63816ZM37.336 44.6855V44.6883C37.3388 44.7024 37.3417 44.7164 37.3445 44.7333L38.3488 50.5428C38.4052 50.8745 38.504 51.1724 38.6479 51.4478C38.7946 51.7289 38.9892 51.9903 39.2375 52.2404L41.6242 54.6492C41.7625 54.7728 41.8612 54.9443 41.8951 55.141L42.3888 57.9938L57.4284 55.4108L56.9347 52.5552H56.9375C56.9037 52.3613 56.9375 52.1533 57.0475 51.9706L58.382 49.7446C58.5992 49.382 58.7431 49.0222 58.8136 48.6569C58.8842 48.2943 58.8842 47.9205 58.8193 47.527L58.3679 44.871C58.3594 44.8401 58.3566 44.8092 58.351 44.7754L57.1633 37.7798C57.1604 37.7629 57.1548 37.7461 57.152 37.7292L56.3564 33.1254C56.2802 32.6757 55.9417 32.434 55.5523 32.3666C55.3661 32.3328 55.1715 32.3356 54.9796 32.3694C54.7821 32.4031 54.5959 32.4649 54.438 32.5549C54.0966 32.7488 53.8596 33.0889 53.9386 33.5414L54.4097 36.2677C54.4887 36.7371 54.1728 37.1811 53.7044 37.2599C53.2333 37.3386 52.7876 37.0238 52.7086 36.5572L52.2374 33.8366V33.8338V33.831L51.913 31.9534C51.834 31.5037 51.4983 31.262 51.1089 31.1946C50.9227 31.1608 50.7281 31.1637 50.5362 31.1974C50.3387 31.2311 50.1525 31.2929 49.9946 31.3829C49.6504 31.5768 49.4162 31.9169 49.4952 32.3722L50.0623 35.6494C50.1413 36.1188 49.8253 36.5628 49.357 36.6415C48.8858 36.7202 48.4401 36.4054 48.3611 35.9389L47.794 32.6617L47.5655 31.3323C47.4865 30.8826 47.1508 30.6408 46.7615 30.5734C46.5753 30.5397 46.3806 30.5425 46.1888 30.5762C45.9913 30.6099 45.8051 30.6717 45.6471 30.7617C45.3029 30.9556 45.0687 31.2957 45.1477 31.7482L45.9433 36.3548L46.2762 38.2857C46.3552 38.7551 46.0393 39.1991 45.5709 39.2778C45.0998 39.3565 44.6541 39.0417 44.5751 38.5752L44.2422 36.6471V36.6443L43.4466 32.0405V32.0377L42.3378 25.621C42.2588 25.1713 41.9231 24.9296 41.5337 24.8622C41.3475 24.8284 41.1529 24.8313 40.961 24.865C40.7635 24.8987 40.5774 24.9605 40.4194 25.0505C40.0752 25.2444 39.841 25.5845 39.92 26.0398L42.1939 39.1854L43.1305 44.6071C43.2095 45.0765 42.8935 45.5205 42.4252 45.5992C41.9541 45.6779 41.5084 45.3632 41.4293 44.8966L40.4927 39.4749C40.3375 38.5699 39.2429 37.8925 38.1483 37.648C37.8097 37.5721 37.4768 37.5412 37.1721 37.5608C36.9126 37.5777 36.6869 37.6311 36.5232 37.7238C36.3173 37.8391 36.2073 38.0808 36.2778 38.4827L37.3527 44.6914L37.336 44.6855ZM61.0366 6.63816V41.7484C61.0366 41.8384 61.0225 41.9283 60.9943 42.0183C60.8447 42.4708 60.3567 42.7153 59.9025 42.5663C59.8404 42.5466 59.7784 42.5242 59.7191 42.5073L59.9645 43.9407C60.6614 44.0728 61.347 44.2218 62.024 44.3876C62.4557 44.4916 62.8704 44.6012 63.271 44.7136L63.2682 7.30451C62.8366 7.16117 62.3965 7.02345 61.9507 6.89416C61.646 6.80422 61.3413 6.71967 61.0366 6.63816ZM32.4971 2.15801C36.7289 0.721785 41.5365 0.00226784 46.335 0.00226784C51.2156 0.00226784 56.1045 0.744234 60.3902 2.23112C60.7626 2.32668 61.0391 2.66395 61.0391 3.0659V4.85908C61.513 4.97994 61.9814 5.10923 62.4384 5.24132C63.0816 5.42964 63.722 5.63481 64.3539 5.85404C64.7263 5.94959 65 6.28687 65 6.68882V45.8773C65 45.9673 64.9859 46.0572 64.9577 46.1471C64.8082 46.5996 64.3201 46.8442 63.8659 46.6952C63.1409 46.4563 62.3904 46.2427 61.6174 46.0544C61.1857 45.9504 60.7371 45.8492 60.2717 45.7537L60.5256 47.2405C60.6271 47.8363 60.6243 48.4125 60.5143 48.9746C60.4043 49.5368 60.1898 50.0792 59.8654 50.6189L58.6946 52.5694L59.2814 55.9618C59.3604 56.4312 59.0444 56.8752 58.5761 56.9539L41.832 59.8292C41.3609 59.9079 40.9152 59.5931 40.8362 59.1266L40.2409 55.6892L38.0122 53.4379C37.6369 53.0585 37.3407 52.665 37.1178 52.2349C36.8921 51.8021 36.737 51.3384 36.6495 50.824L35.7919 45.869C35.3771 45.9617 34.9794 46.0545 34.607 46.15C34.0004 46.3074 33.391 46.4845 32.7817 46.684C32.683 46.7178 32.5786 46.7346 32.4742 46.729H32.4544L32.4347 46.7262H32.4319L32.4149 46.7234H32.4093L32.3924 46.7206H32.3867L32.3698 46.7178H32.367L32.3529 46.7149L32.3444 46.7121L32.3331 46.7093L32.3247 46.7065L32.3106 46.7037L32.3021 46.7009L32.2908 46.6981L32.2823 46.6953L32.2711 46.6925L32.2626 46.6896L32.2513 46.6868L32.2344 46.6812C28.0957 45.3181 22.3969 44.6351 16.687 44.6351V44.6379C10.9882 44.6379 5.30041 45.3152 1.17361 46.6699C1.07769 46.7065 0.976122 46.7233 0.868915 46.7233C0.39213 46.7233 0.0028212 46.3383 0.0028212 45.8605L0 6.68925H0.0028212C0.0028212 6.33511 0.225693 6.00065 0.581165 5.87699C1.23568 5.64932 1.89583 5.43853 2.56165 5.24179C3.01869 5.10688 3.48697 4.9804 3.96097 4.85955V3.06637H3.96379C3.96379 2.71223 4.18666 2.37777 4.54213 2.2541C8.84162 0.753262 13.7563 0 18.6624 0C23.4612 0 28.2687 0.719517 32.5002 2.15575L32.4971 2.15801ZM35.1039 41.92C34.8246 41.9846 34.551 42.0521 34.283 42.1195C33.9754 42.1982 33.6679 42.2853 33.3605 42.3781V44.7137C33.6228 44.6407 33.8937 44.5676 34.1758 44.4945C34.6159 44.3821 35.056 44.2753 35.4933 44.1797L35.1011 41.9172L35.1039 41.92ZM23.6328 9.63164C24.8939 10.888 25.6753 12.625 25.6753 14.5446C25.6753 16.4642 24.8939 18.2012 23.6328 19.4575C22.3717 20.7139 20.6282 21.4924 18.7014 21.4924C16.7745 21.4924 15.031 20.7139 13.7699 19.4575C12.5088 18.2012 11.7274 16.4642 11.7274 14.5446C11.7274 12.625 12.5088 10.888 13.7699 9.63164C15.031 8.37529 16.7745 7.59677 18.7014 7.59677C20.6283 7.59677 22.3717 8.37529 23.6328 9.63164ZM18.7014 5.87382C21.105 5.87382 23.2801 6.84351 24.8572 8.41457C26.4314 9.98291 27.4075 12.1527 27.4075 14.5473C27.4075 16.9419 26.4342 19.1089 24.8572 20.68C23.2829 22.2484 21.105 23.2208 18.7014 23.2208C16.2977 23.2208 14.1226 22.2511 12.5455 20.68C10.9713 19.1117 9.99521 16.9419 9.99521 14.5473C9.99521 12.1527 10.9686 9.98571 12.5455 8.41457C14.1198 6.84344 16.2977 5.87382 18.7014 5.87382ZM17.9396 14.0022H16.9663C16.4895 14.0022 16.1002 13.6171 16.1002 13.1394C16.1002 12.6644 16.4867 12.2765 16.9663 12.2765H18.8057C19.2825 12.2765 19.6718 12.6616 19.6718 13.1394V18.2209H20.442C20.9188 18.2209 21.3081 18.606 21.3081 19.0838C21.3081 19.5588 20.9216 19.9466 20.442 19.9466H18.8085H18.8029H17.1751C16.6983 19.9466 16.309 19.5616 16.309 19.0838C16.309 18.6088 16.6955 18.2209 17.1751 18.2209H17.9452V14.0022H17.9396ZM17.9396 10.6323C17.9396 10.1573 18.3261 9.76943 18.8057 9.76943C19.2825 9.76943 19.6718 10.1545 19.6718 10.6323V10.6772C19.6718 11.1522 19.2853 11.5401 18.8057 11.5401C18.3289 11.5401 17.9396 11.155 17.9396 10.6772V10.6323ZM55.0245 9.37873C52.2315 8.85034 49.3172 8.58611 46.4083 8.58611C43.4997 8.58611 40.5854 8.85031 37.7922 9.37873C37.3239 9.46585 37.0164 9.91555 37.1038 10.3821C37.1913 10.8487 37.6427 11.155 38.111 11.0679C40.7854 10.562 43.5925 10.3062 46.4079 10.3062C49.2234 10.3062 52.0306 10.5592 54.7048 11.0679C55.1731 11.155 55.6245 10.8486 55.712 10.3821C55.7994 9.91553 55.4919 9.46586 55.0236 9.37873H55.0245ZM55.0245 15.3344C52.2315 14.806 49.3172 14.5418 46.4083 14.5418C43.4997 14.5418 40.5854 14.806 37.7922 15.3344C37.3239 15.4215 37.0164 15.8712 37.1038 16.3378C37.1913 16.8043 37.6427 17.1107 38.111 17.0235C40.7854 16.5176 43.5925 16.2619 46.4079 16.2619C49.2234 16.2619 52.0306 16.5148 54.7048 17.0235C55.1731 17.1107 55.6245 16.8043 55.712 16.3378C55.7994 15.8712 55.4919 15.4215 55.0236 15.3344H55.0245ZM55.0245 21.29C52.2315 20.7616 49.3172 20.4974 46.4083 20.4974C43.4997 20.4974 40.5854 20.7616 37.7922 21.29C37.3239 21.3772 37.0164 21.8269 37.1038 22.2934C37.1913 22.76 37.6427 23.0663 38.111 22.9792C40.7854 22.4733 43.5925 22.2175 46.4079 22.2175C49.2234 22.2175 52.0306 22.4705 54.7048 22.9792C55.1731 23.0663 55.6245 22.76 55.712 22.2934C55.7994 21.8268 55.4919 21.3772 55.0236 21.29H55.0245ZM55.0245 27.2457C53.1653 26.8944 51.2497 26.6583 49.3144 26.5402C47.6246 26.4391 45.9234 26.425 44.2306 26.5009L44.0275 25.3289C43.8046 24.036 42.8793 23.3474 41.8185 23.1619C41.4376 23.0944 41.0427 23.0973 40.6561 23.1647C40.2753 23.2294 39.9 23.3615 39.5615 23.5526C38.6221 24.081 37.9817 25.0366 38.2045 26.3267L38.3456 27.1417C38.182 27.1698 37.9986 27.2036 37.7955 27.2429C37.3271 27.3301 37.0196 27.7797 37.1071 28.2463C37.1945 28.7129 37.6459 29.0192 38.1142 28.9321C38.2666 28.904 38.4415 28.8702 38.639 28.8365L39.9649 36.4979C39.5022 36.2562 39.0085 36.0763 38.512 35.9639C38.0098 35.8515 37.5077 35.8065 37.0421 35.8374C36.5343 35.8712 36.0575 35.9977 35.6569 36.2225C34.819 36.6947 34.345 37.5238 34.5595 38.7633L34.8106 40.2191C34.4833 40.2922 34.1645 40.3709 33.8514 40.4524C33.6849 40.4946 33.5213 40.5395 33.3605 40.5845V3.6812C37.3271 2.37707 41.8271 1.72497 46.3324 1.72497C50.8376 1.72497 55.3378 2.37703 59.3043 3.6812V40.0902L58.3084 34.2329C58.2999 34.1879 58.2887 34.143 58.2746 34.1008L58.0545 32.836C57.8316 31.5431 56.9063 30.8546 55.8455 30.6691C55.4646 30.6016 55.0697 30.6044 54.6831 30.6719C54.3023 30.7365 53.9271 30.8686 53.5885 31.0597C53.5462 31.0822 53.5067 31.1075 53.4672 31.1328C53.1118 30.18 52.3049 29.6544 51.3993 29.4971C51.0212 29.4296 50.6235 29.4324 50.2369 29.4999C49.8561 29.5645 49.4808 29.6966 49.1423 29.8877C49.0549 29.9383 48.9702 29.9917 48.8884 30.0479C48.4737 29.3846 47.7938 29.008 47.049 28.8759C46.6681 28.8085 46.2732 28.8113 45.8866 28.8787C45.5058 28.9434 45.1305 29.0755 44.792 29.2666C44.7666 29.2806 44.7412 29.2947 44.7159 29.3116L44.5268 28.2126C46.087 28.148 47.6583 28.1649 49.2128 28.2604C51.0748 28.3729 52.9199 28.6005 54.7057 28.9378C55.1741 29.0249 55.6254 28.7186 55.7129 28.252C55.8003 27.7854 55.4928 27.3358 55.0245 27.2486L55.0245 27.2457ZM10.5058 28.9236C10.0374 29.0107 9.58607 28.7044 9.49861 28.2378C9.41115 27.7713 9.71866 27.3216 10.187 27.2345C12.9715 26.7117 15.8858 26.4531 18.806 26.4559C21.7288 26.4616 24.6431 26.7286 27.4193 27.2598C27.8876 27.3497 28.1951 27.7994 28.1048 28.266C28.0146 28.7325 27.5632 29.0389 27.0949 28.9489C24.412 28.4346 21.6048 28.176 18.8059 28.1732C16.0016 28.1676 13.1914 28.4205 10.5058 28.9236ZM10.5058 34.8793C10.0374 34.9664 9.58607 34.66 9.49861 34.1935C9.41115 33.7269 9.71866 33.2773 10.187 33.1901C12.9715 32.6674 15.8858 32.4088 18.806 32.4116C21.7288 32.4172 24.6431 32.6842 27.4193 33.2155C27.8876 33.3054 28.1951 33.7551 28.1048 34.2216C28.0146 34.6882 27.5632 34.9945 27.0949 34.9046C24.412 34.3903 21.6048 34.1317 18.8059 34.1289C16.0016 34.1233 13.1914 34.3762 10.5058 34.8793Z" fill="#294C82"/>
</svg>
