<svg width="70" height="63" viewBox="0 0 70 63" fill="none" xmlns="http://www.w3.org/2000/svg">
<path d="M18.6553 30.0456C18.5024 30.0285 18.3495 29.9943 18.2136 29.9087L17.2621 29.3612V54.0342H22.1723V32.3897C22.1723 31.8251 22.6311 31.3631 23.1917 31.3631H44.6675V27.8213C44.4466 27.8897 44.2087 27.9068 43.9879 27.9068C42.2718 27.9068 42.1699 26.5551 41.4903 26.9316C40.6578 27.3935 39.8083 27.7529 38.8738 28.0095C38.5 28.1293 38.534 28.4202 38.534 28.6939C38.534 30.097 37.3956 31.2262 36.0194 31.2262H34.5752C33.182 31.2262 32.0607 30.097 32.0607 28.6939C32.0607 27.8726 31.8738 28.1635 30.4466 27.5646C30.1917 27.462 29.9539 27.3593 29.716 27.2395L24.8738 29.8574L24.2621 30.1483C22.5971 30.9525 21.4417 31.5171 19.267 30.3536L18.6553 30.0456ZM15.2403 28.1635L11.1116 25.7681C10.6189 25.4772 10.466 24.8612 10.7379 24.365C11.0267 23.8688 11.6383 23.7148 12.1311 23.9886L16.7524 26.6749L20.2524 28.5741C21.4927 29.2414 22.2743 28.8821 23.3956 28.3346C23.5825 28.2491 23.7694 28.1464 23.9563 28.0608L29.9199 24.8441C31.3471 24.057 31.7888 22.6711 31.2282 21.5247C30.7184 20.4981 29.6141 20.173 28.3398 20.8232L22.6481 23.7319C22.3252 23.8859 21.9345 23.8859 21.6116 23.6635C18.9782 21.8327 16.2937 19.9335 14.6796 19.0951C12.0461 20.3612 8.95388 20.2072 6.4733 18.7015C3.04126 20.8574 3.82282 27.5475 3.82282 31.962V54.0513H8.97087V36.2053C8.97087 35.6407 9.42961 35.1787 9.99029 35.1787C10.551 35.1787 11.0097 35.6407 11.0097 36.2053V54.0342H15.2743V28.1635H15.2403ZM10.9078 2.48099C15.682 2.48099 19.5728 6.38213 19.5728 11.2072C19.5728 13.8251 18.4175 16.2034 16.5655 17.8118C17.9248 18.616 20.0655 20.1046 22.2403 21.6274L23.5825 20.943L22.9539 19.2319C22.8519 18.8555 22.5461 18.8897 22.2743 18.8897C20.8811 18.8897 19.7597 17.7433 19.7597 16.3574V14.903C19.7597 13.5 20.8981 12.3707 22.2743 12.3707C23.1068 12.3707 22.801 12.1654 23.4126 10.6768C24.0243 9.20532 24.3811 9.25665 23.7864 8.6749C22.801 7.68251 22.801 6.07414 23.7864 5.08175L24.8058 4.05513C25.7913 3.06274 27.3883 3.06274 28.3568 4.05513C28.9345 4.63688 28.8665 4.29468 30.3616 3.67871C31.8228 3.06274 32.0437 3.37072 32.0437 2.53232C32.0437 1.12928 33.182 0 34.5583 0H36.0024C37.3956 0 38.517 1.14639 38.517 2.53232C38.517 3.37072 38.7209 3.06274 40.199 3.67871C41.6602 4.29468 41.6092 4.65399 42.1869 4.07224C43.1723 3.07985 44.7694 3.07985 45.7549 4.07224L46.7743 5.09886C47.7597 6.09126 47.7597 7.69962 46.7743 8.69202L46.6893 8.77757H68.165C68.7257 8.77757 69.1845 9.23954 69.1845 9.80418V54.1027C69.6432 54.2053 70 54.616 70 55.1122V61.9734C70 62.538 69.5413 63 68.9806 63H1.01942C0.458738 63 0 62.538 0 61.9734V55.1122C0 54.5475 0.458738 54.0856 1.01942 54.0856H1.71602V31.9278C1.71602 26.9144 0.951456 20.3441 4.7233 17.3498C1.35922 13.9449 1.35922 8.43536 4.74029 5.03042C6.35437 3.45627 8.51213 2.48099 10.9078 2.48099ZM15.5801 6.48479C12.9976 3.88403 8.80097 3.88403 6.21845 6.48479C3.63592 9.08555 3.63592 13.3118 6.21845 15.9125C8.80097 18.5133 12.9976 18.5133 15.5801 15.9125C18.1796 13.3118 18.1796 9.08555 15.5801 6.48479ZM25.4175 19.9848L27.4053 18.9753C28.068 18.6331 28.6966 18.462 29.2743 18.4278C27.2354 14.0133 30.4466 8.89734 35.3228 8.89734C39.0097 8.89734 41.983 11.9087 41.983 15.6046C41.983 20.0875 37.7015 23.2871 33.4539 22.038C33.6068 23.4068 33.1311 24.8612 31.8908 25.9392C32.5874 26.1787 33.0971 26.2814 33.6068 26.9829C34.3883 28.0437 33.9126 28.711 34.2524 29.0532C34.3374 29.1388 34.4563 29.1901 34.5922 29.1901H36.0364C36.2913 29.1901 36.5121 28.9677 36.5121 28.711C36.5121 28.0437 36.5971 27.5304 37.0218 26.9829C37.6675 26.1103 38.415 26.1103 39.4515 25.6654C40.4879 25.2376 41.0485 24.673 42.1359 24.8612C43.4102 25.0665 43.5291 25.8707 44.0049 25.8707C44.1238 25.8707 44.2427 25.8194 44.3447 25.7167L45.3641 24.6901C45.6529 24.3992 45.466 24.0913 45.2112 23.8517C44.3956 23.0304 44.2257 21.7814 44.8374 20.7376C45.1602 20.173 45.517 19.2491 45.6869 18.616C45.9927 17.5209 46.9782 16.7852 48.0995 16.7852C48.3034 16.7852 48.4733 16.8023 48.6432 16.6312C48.7282 16.5456 48.7791 16.4259 48.7791 16.289V14.8346C48.7791 14.5608 48.5583 14.3555 48.3034 14.3555C47.6408 14.3555 47.1311 14.27 46.5874 13.8593C45.7209 13.2091 45.7209 12.4392 45.2791 11.4125C44.8714 10.4202 44.3277 9.82129 44.4636 8.76046C44.5655 8.05893 44.8544 7.64829 45.3301 7.1692C45.517 6.98099 45.517 6.673 45.3301 6.48479L44.3107 5.45818C44.1238 5.26996 43.818 5.26996 43.6311 5.45818C43.1553 5.93726 42.7476 6.22814 42.051 6.3308C40.9806 6.48479 40.4369 5.95437 39.4175 5.50951C38.3811 5.08175 37.6335 5.06464 36.9879 4.20913C36.2063 3.14829 36.682 2.48099 36.3422 2.13878C36.2573 2.05323 36.1383 2.0019 36.0024 2.0019H34.5583C34.2864 2.0019 34.0825 2.22433 34.0825 2.48099C34.0825 3.1654 33.9976 3.6616 33.5728 4.20913C32.9272 5.08175 32.1796 5.08175 31.1432 5.50951C30.1238 5.93726 29.5801 6.48479 28.5097 6.3308C27.2015 6.14259 27.0825 5.32129 26.5898 5.32129C26.4709 5.32129 26.3349 5.37262 26.25 5.45818L25.2306 6.48479C25.0437 6.673 25.0437 6.98099 25.2306 7.1692C25.7063 7.64829 25.9951 8.07605 26.0971 8.76046C26.182 9.29087 26.0801 9.8384 25.8083 10.3346C25.4175 11.0361 25.1116 11.7719 24.8908 12.5418C24.585 13.6369 23.5995 14.3726 22.4782 14.3726C22.2573 14.3726 22.0874 14.3555 21.9345 14.5266C21.8495 14.6122 21.7816 14.7319 21.7816 14.8688V16.3232C21.7816 16.5798 22.0024 16.8023 22.2573 16.8023C22.9369 16.8023 23.4296 16.8878 23.9733 17.3156C24.9078 18 24.9078 18.8555 25.4175 19.9848ZM2.08981 60.8954H68.0121V56.0874H2.08981V60.8954ZM35.3058 10.9506C31.1942 10.9506 29.1383 15.9639 32.0437 18.8897C34.949 21.8156 39.9272 19.7281 39.9272 15.6046C39.9442 13.0209 37.8714 10.9506 35.3058 10.9506ZM47.25 10.7624C47.7937 12.1312 47.5388 12.3365 48.3374 12.3365C49.7306 12.3365 50.8519 13.4829 50.8519 14.8688V16.3232C50.8519 17.7262 49.7306 18.8555 48.3374 18.8555C47.5049 18.8555 47.8107 19.0608 47.199 20.5494C46.6553 21.884 46.7403 21.097 46.7403 22.4829C47.8277 23.5779 47.8447 25.1179 46.7403 26.23V31.3631H67.1966V10.7624H61.8277V18.9411C61.8277 19.7966 60.8083 20.3441 60.0777 19.6597L56.9684 16.9392L53.7913 19.711C53.1286 20.2928 52.1092 19.8137 52.1092 18.9411V10.7624H47.25ZM50.3592 29.2757C49.7985 29.2757 49.3398 28.8137 49.3398 28.2491C49.3398 27.6844 49.7985 27.2224 50.3592 27.2224H54.7767C55.3374 27.2224 55.7961 27.6844 55.7961 28.2491C55.7961 28.8137 55.3374 29.2757 54.7767 29.2757H50.3592ZM50.3592 25.2719C49.7985 25.2719 49.3398 24.8099 49.3398 24.2452C49.3398 23.6806 49.7985 23.2186 50.3592 23.2186H54.7767C55.3374 23.2186 55.7961 23.6806 55.7961 24.2452C55.7961 24.8099 55.3374 25.2719 54.7767 25.2719H50.3592ZM54.1481 10.7624V16.6825L56.2888 14.8175C56.6626 14.4753 57.2403 14.4753 57.6311 14.8004L59.7888 16.6825V10.7452H54.1481V10.7624ZM27.8471 51.9297C27.2864 51.9297 26.8277 51.4677 26.8277 50.903C26.8277 50.3384 27.2864 49.8764 27.8471 49.8764H32.2646C32.8252 49.8764 33.284 50.3384 33.284 50.903C33.284 51.4677 32.8252 51.9297 32.2646 51.9297H27.8471ZM27.8471 47.9259C27.2864 47.9259 26.8277 47.4639 26.8277 46.8992C26.8277 46.3346 27.2864 45.8726 27.8471 45.8726H32.2646C32.8252 45.8726 33.284 46.3346 33.284 46.8992C33.284 47.4639 32.8252 47.9259 32.2646 47.9259H27.8471ZM39.3155 33.4163V41.5951C39.3155 42.4506 38.2961 42.9981 37.5655 42.3137L34.4563 39.5932L31.2961 42.365C30.6335 42.9297 29.6141 42.4677 29.6141 41.5951V33.4163H24.2451V54.0171H44.7015V33.4163H39.3155ZM31.6359 33.4163V39.3536L33.7767 37.4886C34.1505 37.1464 34.7282 37.1293 35.1189 37.4715L37.2767 39.3536V33.4335H31.6359V33.4163ZM46.7233 33.4163V54.0171H67.1796V33.4163H61.8107V41.5951C61.8107 42.4506 60.7913 42.9981 60.0607 42.3137L56.9515 39.5932L53.7743 42.365C53.1116 42.9297 52.0922 42.4677 52.0922 41.5951V33.4163H46.7233ZM50.3592 51.9297C49.7985 51.9297 49.3398 51.4677 49.3398 50.903C49.3398 50.3384 49.7985 49.8764 50.3592 49.8764H54.7767C55.3374 49.8764 55.7961 50.3384 55.7961 50.903C55.7961 51.4677 55.3374 51.9297 54.7767 51.9297H50.3592ZM50.3592 47.9259C49.7985 47.9259 49.3398 47.4639 49.3398 46.8992C49.3398 46.3346 49.7985 45.8726 50.3592 45.8726H54.7767C55.3374 45.8726 55.7961 46.3346 55.7961 46.8992C55.7961 47.4639 55.3374 47.9259 54.7767 47.9259H50.3592ZM54.1481 33.4163V39.3536L56.2888 37.4886C56.6626 37.1464 57.2403 37.1293 57.6311 37.4715L59.7888 39.3536V33.4335H54.1481V33.4163Z" fill="#294C82"/>
</svg>
