<svg width="60" height="67" viewBox="0 0 60 67" fill="none" xmlns="http://www.w3.org/2000/svg">
<path d="M5.46325 10.4758L2.31833 14.9552L5.57287 14.4769C5.68251 14.4626 5.78061 14.4253 5.86428 14.3738C5.95084 14.3222 6.02296 14.242 6.08067 14.159C6.14415 14.0673 6.18743 13.9728 6.20185 13.8812C6.21916 13.7867 6.21628 13.6836 6.19031 13.5747L5.46325 10.4758ZM26.3524 59.969C25.9455 59.969 25.6137 59.6397 25.6137 59.2358C25.6137 58.832 25.9455 58.5026 26.3524 58.5026H53.07C53.4768 58.5026 53.8086 58.832 53.8086 59.2358C53.8086 59.6397 53.4768 59.969 53.07 59.969H26.3524ZM26.3524 57.1623C25.9455 57.1623 25.6137 56.8329 25.6137 56.4291C25.6137 56.0253 25.9455 55.6959 26.3524 55.6959H53.07C53.4768 55.6959 53.8086 56.0253 53.8086 56.4291C53.8086 56.8329 53.4768 57.1623 53.07 57.1623H26.3524ZM26.3524 54.3556C25.9455 54.3556 25.6137 54.0262 25.6137 53.6224C25.6137 53.2186 25.9455 52.8892 26.3524 52.8892H53.07C53.4768 52.8892 53.8086 53.2186 53.8086 53.6224C53.8086 54.0262 53.4768 54.3556 53.07 54.3556H26.3524ZM26.3524 51.5489C25.9455 51.5489 25.6137 51.2195 25.6137 50.8157C25.6137 50.4118 25.9455 50.0825 26.3524 50.0825H53.07C53.4768 50.0825 53.8086 50.4118 53.8086 50.8157C53.8086 51.2195 53.4768 51.5489 53.07 51.5489H26.3524ZM26.3524 48.7421C25.9455 48.7421 25.6137 48.4128 25.6137 48.0089C25.6137 47.6051 25.9455 47.2758 26.3524 47.2758H53.07C53.4768 47.2758 53.8086 47.6051 53.8086 48.0089C53.8086 48.4128 53.4768 48.7421 53.07 48.7421H26.3524ZM26.3524 45.9354C25.9455 45.9354 25.6137 45.606 25.6137 45.2022C25.6137 44.7984 25.9455 44.469 26.3524 44.469H36.8025C37.2093 44.469 37.5411 44.7984 37.5411 45.2022C37.5411 45.606 37.2093 45.9354 36.8025 45.9354H26.3524ZM29.379 28.5449L34.3504 33.0128C34.4744 33.1045 34.5696 33.2333 34.6187 33.3823L37.1288 39.5771C37.7232 39.2621 38.2657 38.8611 38.7359 38.3914C39.9709 37.1656 40.7325 35.473 40.7325 33.6057C40.7325 31.7355 39.9679 30.0428 38.7359 28.8199C37.4606 27.554 35.741 26.8381 33.9147 26.8381C32.1749 26.8381 30.588 27.4853 29.382 28.5478L29.379 28.5449ZM35.7583 40.1212L33.4126 34.3359H27.1285C27.3016 35.9111 28.0172 37.3288 29.0876 38.3885C30.3225 39.6143 32.0277 40.3704 33.9088 40.3704C34.5493 40.3704 35.1696 40.2816 35.7554 40.1183L35.7583 40.1212ZM34.6504 25.3973C34.913 25.4202 35.1726 25.4546 35.4294 25.5033V23.3925H34.6504V25.4002V25.3973ZM36.9067 25.9186C37.2298 26.0417 37.5443 26.1849 37.8444 26.3482V21.1299C37.8444 20.7261 38.1762 20.3967 38.583 20.3967H40.8393C41.2461 20.3967 41.5779 20.7261 41.5779 21.1299V30.4495C41.9847 31.4204 42.2069 32.4858 42.2069 33.6028C42.2069 33.9551 42.1838 34.3016 42.1405 34.6425L42.5127 34.631V19.1827C42.5127 18.7789 42.8445 18.4495 43.2514 18.4495H45.5076C45.9145 18.4495 46.2463 18.7789 46.2463 19.1827V33.7548C46.5694 33.6116 46.881 33.4513 47.184 33.2766V24.4035C47.184 23.9997 47.5158 23.6703 47.9226 23.6703H50.1789C50.5857 23.6703 50.9175 23.9997 50.9175 24.4035V29.5902C51.8119 28.078 52.3226 26.3167 52.3226 24.435C52.3226 21.6168 51.1714 19.065 49.3104 17.2177C47.4494 15.3704 44.8786 14.2276 42.0395 14.2276C39.2004 14.2276 36.6296 15.3704 34.7686 17.2177C32.9076 19.0649 31.7564 21.6168 31.7564 24.435C31.7564 24.8474 31.7795 25.2169 31.8228 25.6236C32.2556 25.5119 32.7028 25.4346 33.1615 25.3945V22.6536C33.1615 22.2498 33.4933 21.9204 33.9002 21.9204H36.1564C36.5633 21.9204 36.8951 22.2498 36.8951 22.6536V25.9157L36.9067 25.9186ZM39.3245 27.3591C39.4803 27.4938 39.6332 27.6341 39.7804 27.7802C39.89 27.889 39.9997 28.0036 40.1035 28.121V21.866H39.3245V27.3621L39.3245 27.3591ZM41.8231 36.1032C41.4163 37.3748 40.7094 38.5089 39.7804 39.4283C38.2801 40.9176 36.2056 41.8399 33.9118 41.8399C31.6208 41.8399 29.5463 40.9176 28.0432 39.4283C26.4851 37.8817 25.6137 35.791 25.6137 33.6029C25.6137 31.4148 26.4851 29.3241 28.0432 27.7775C28.727 27.0987 29.5262 26.5403 30.4148 26.1307C30.334 25.5751 30.2879 24.9965 30.2879 24.4381C30.2879 21.2161 31.6065 18.2947 33.7329 16.1838C35.8593 14.0729 38.8023 12.7641 42.0484 12.7641C45.2971 12.7641 48.2372 14.073 50.3638 16.1838C52.4902 18.2946 53.8088 21.2159 53.8088 24.4381C53.8088 27.6629 52.4902 30.5814 50.3638 32.6923C48.2374 34.8031 45.2973 36.112 42.0484 36.112L41.8204 36.1034L41.8231 36.1032ZM49.4487 31.5264V25.1397H48.6697V32.2482C48.8947 32.0592 49.1111 31.8616 49.3217 31.6553L49.4487 31.5264ZM44.7775 34.2816V19.9185H43.9985V34.462C44.261 34.4104 44.5207 34.3504 44.7775 34.2816ZM38.427 8.45358L36.6872 2.00665C36.6352 1.8119 36.5054 1.65438 36.3438 1.56273C36.1794 1.46821 35.9774 1.43671 35.7812 1.48827L6.68593 9.22707L7.6265 13.2367C7.69863 13.5403 7.70729 13.8468 7.64958 14.1389C7.59476 14.4368 7.47646 14.7203 7.29758 14.9781C7.11004 15.253 6.91673 15.4277 6.64263 15.611C6.38872 15.7685 6.1002 15.8745 5.78567 15.9203L1.66266 16.5275L13.7606 61.3437C13.8126 61.5384 13.9424 61.6959 14.104 61.7876C14.2655 61.8821 14.4675 61.9136 14.6637 61.862L15.7976 61.5613V13.371C15.7976 12.7639 16.0458 12.214 16.4468 11.8159C16.8479 11.4177 17.4019 11.1714 18.0135 11.1714H19.4273V10.6502C19.4273 10.043 19.6755 9.49315 20.0765 9.09503C20.4776 8.69693 21.0316 8.45062 21.6432 8.45062H38.4271L38.427 8.45358ZM5.6386 7.99247L35.4001 0.0732996C35.9858 -0.0813592 36.586 0.0160192 37.0764 0.296695C37.5669 0.577367 37.9535 1.04704 38.1122 1.62846L39.9559 8.45342H57.7841C58.3958 8.45342 58.9497 8.69973 59.3508 9.09783C59.7519 9.49593 60 10.0458 60 10.653V15.244C60 15.6478 59.6682 15.9772 59.2614 15.9772C58.8546 15.9772 58.5227 15.6478 58.5227 15.244V10.653C58.5227 10.4525 58.4391 10.2692 58.3064 10.1346C58.1736 10.0029 57.989 9.91981 57.7841 9.91981H21.6461C21.4441 9.91981 21.2594 10.0029 21.1238 10.1346C20.9911 10.2664 20.9074 10.4497 20.9074 10.653V62.0796C20.9074 62.2801 20.9911 62.4634 21.1238 62.598C21.2566 62.7297 21.4412 62.8128 21.6461 62.8128H57.7841C57.9861 62.8128 58.1707 62.7297 58.3064 62.598C58.4391 62.4662 58.5227 62.2829 58.5227 62.0796V19.0392C58.5227 18.6354 58.8546 18.306 59.2614 18.306C59.6682 18.306 60 18.6354 60 19.0392V62.0796C60 62.6868 59.7519 63.2366 59.3508 63.6348C58.9498 64.0329 58.3958 64.2792 57.7841 64.2792H56.3703V64.8004C56.3703 65.4019 56.1222 65.9546 55.7182 66.3527C55.3201 66.7508 54.7661 67 54.1544 67H18.0164C17.4047 67 16.8507 66.7537 16.4497 66.3556C16.0486 65.9546 15.8005 65.4047 15.8005 64.8004V63.082L15.0474 63.2825C14.4617 63.4371 13.8616 63.3397 13.3711 63.0591C12.8806 62.7784 12.494 62.3087 12.3382 61.7244L0.0238425 16.115C-0.0280926 15.9145 0.00364499 15.6911 0.130596 15.5078L5.20001 8.28757C5.30966 8.13291 5.45684 8.0383 5.6386 7.99247ZM54.8932 64.2794H21.6461C21.0345 64.2794 20.4805 64.0331 20.0794 63.635C19.6784 63.2369 19.4302 62.687 19.4302 62.0798V12.6409H18.0164C17.8145 12.6409 17.6298 12.7239 17.4942 12.8557C17.3615 12.9874 17.2778 13.1707 17.2778 13.3741V64.8007C17.2778 65.004 17.3615 65.1873 17.4913 65.3191C17.6269 65.4508 17.8145 65.5339 18.0164 65.5339H54.1545C54.3565 65.5339 54.5411 65.4508 54.6767 65.3191C54.8123 65.1902 54.8931 65.004 54.8931 64.8007L54.8932 64.2794Z" fill="#294C82"/>
</svg>
