<svg width="60" height="46" viewBox="0 0 60 46" fill="none" xmlns="http://www.w3.org/2000/svg">
<path d="M59.0001 2.73633H28.2902C27.7379 2.73633 27.2902 3.18359 27.2902 3.73633C27.2902 4.28906 27.7379 4.73633 28.2902 4.73633H45.7912V34.7168H19.0001C17.7033 34.7302 17.6725 36.6959 19.0002 36.7168L59.0001 36.7168C59.5524 36.7168 60.0001 36.2695 60.0001 35.7168V3.73633C60.0001 3.18359 59.5524 2.73633 59.0001 2.73633ZM58.0001 34.7168H47.7912V4.73633H58.0001V34.7168Z" fill="white"/>
<path d="M31.7545 27.4912V32.0596C31.7545 32.6123 32.2023 33.0596 32.7545 33.0596H42.6627C43.215 33.0596 43.6627 32.6123 43.6627 32.0596V27.4912C43.6627 26.9385 43.215 26.4912 42.6627 26.4912H32.7545C32.2023 26.4912 31.7545 26.9385 31.7545 27.4912ZM33.7545 28.4912H41.6627V31.0596H33.7545V28.4912Z" fill="white"/>
<path d="M42.6627 24.8379C43.9687 24.8328 43.9718 22.8432 42.6627 22.8379L36.8829 22.8379C35.577 22.843 35.5739 24.8326 36.883 24.8379L42.6627 24.8379Z" fill="white"/>
<path d="M19.6827 4.19039L15.5177 8.35543L14.276 7.11422C13.3493 6.19361 11.9401 7.59974 12.862 8.52832L14.8107 10.4765C15.2013 10.8671 15.8341 10.8671 16.2247 10.4765L21.0968 5.60445C22.0156 4.67815 20.613 3.26811 19.6827 4.19039Z" fill="white"/>
<path d="M9.67151 14.667H24.2872C24.8395 14.667 25.2872 14.2197 25.2872 13.667V1C25.2872 0.447266 24.8395 0 24.2872 0H9.67151C9.11926 0 8.67151 0.447266 8.67151 1V13.667C8.67151 14.2197 9.11926 14.667 9.67151 14.667ZM10.6715 2H23.2872V12.667H10.6715V2Z" fill="white"/>
<path d="M14.8107 27.833C15.2013 28.2236 15.8341 28.2236 16.2247 27.833L21.0968 22.9609C22.0164 22.0342 20.6122 20.6249 19.6827 21.5469L15.5177 25.7119L14.276 24.4707C13.3476 23.55 11.941 24.9563 12.862 25.8848L14.8107 27.833Z" fill="white"/>
<path d="M12.9141 32.0264H24.2902C24.8424 32.0264 25.2902 31.5791 25.2902 31.0264V18.3564C25.2902 17.8037 24.8424 17.3564 24.2902 17.3564H9.67005C9.1178 17.3564 8.67005 17.8037 8.67005 18.3564V25.0232L6.54554 21.5176C6.27563 21.0529 5.62587 20.8943 5.17053 21.1817C5.17054 21.1816 0.480594 24.0322 0.480594 24.0322C0.00891399 24.3184 -0.140988 24.9336 0.145144 25.4053L11.0353 43.3652C11.1471 43.5498 11.316 43.6934 11.5162 43.7744L15.756 45.4844C16.348 45.7399 17.0794 45.3021 17.1251 44.6553C17.1251 44.6553 17.5753 40.1045 17.5753 40.1045C17.5968 39.8887 17.5475 39.6729 17.4357 39.4873L12.9141 32.0264ZM10.67 19.3564H23.2902V30.0264H11.7028C11.5083 29.7069 10.8739 28.6599 10.67 28.3234V19.3564ZM15.2662 43.1299L12.5729 42.0439L2.37317 25.2227L5.35364 23.4111C7.83687 27.5088 13.0198 36.0605 15.5524 40.2393L15.2662 43.1299Z" fill="white"/>
</svg>
