<svg width="70" height="52" viewBox="0 0 70 52" fill="none" xmlns="http://www.w3.org/2000/svg">
<path d="M52.4038 15.5255H43.9952C39.7787 15.5255 35.9421 17.2613 33.1637 20.0488C30.3828 22.8418 28.6601 26.6949 28.6601 30.9273C28.6601 35.1648 30.3883 39.0153 33.1637 41.8057C35.9447 44.5988 39.7811 46.329 43.9952 46.329H52.4038C53.7327 46.329 55.439 47.2105 57.1809 48.1086L57.2383 48.1415C59.0348 49.0698 60.8669 50.0063 61.5232 49.7097C61.7392 49.6108 61.772 48.1663 61.7994 46.7354C61.8349 44.909 61.8732 43.0937 62.8303 42.2039C64.3698 40.7676 65.6194 39.021 66.4698 37.0628C67.2902 35.1843 67.7441 33.1108 67.7441 30.9274C67.7441 26.6926 66.0159 22.8394 63.2404 20.049C60.4594 17.2559 56.6258 15.5257 52.409 15.5257L52.4038 15.5255ZM38.57 26.2086C37.9466 26.2086 37.4407 25.7005 37.4407 25.0743C37.4407 24.4482 37.9465 23.9401 38.57 23.9401H53.3138C53.9373 23.9401 54.4432 24.4482 54.4432 25.0743C54.4432 25.7005 53.9373 26.2086 53.3138 26.2086H38.57ZM38.57 38.3006C37.9466 38.3006 37.4407 37.7925 37.4407 37.1663C37.4407 36.5401 37.9465 36.0321 38.57 36.0321H57.8289C58.4524 36.0321 58.9583 36.5401 58.9583 37.1663C58.9583 37.7925 58.4524 38.3006 57.8289 38.3006H38.57ZM38.57 32.2531C37.9466 32.2531 37.4407 31.745 37.4407 31.1188C37.4407 30.4927 37.9465 29.9846 38.57 29.9846H57.8289C58.4524 29.9846 58.9583 30.4927 58.9583 31.1188C58.9583 31.745 58.4524 32.2531 57.8289 32.2531H38.57ZM26.9483 35.2933C26.6666 35.3235 26.4287 35.34 25.9994 35.34H17.5908C16.795 35.34 15.3348 36.0924 13.8445 36.8642L13.7844 36.8944C11.5093 38.0671 9.17685 39.2563 7.53888 38.5065C6.03495 37.8199 5.9912 35.6613 5.95018 33.522C5.92284 32.179 5.89549 30.847 5.63572 30.6026C3.87475 28.9603 2.44461 26.9528 1.46843 24.709C0.525015 22.5449 0 20.1638 0 17.6727C0 12.8117 1.977 8.39302 5.16537 5.19057C8.35375 1.98833 12.7536 0 17.5935 0H26.0022C30.2214 0 34.1098 1.51594 37.1535 4.03164C39.9973 6.38254 42.1001 9.60946 43.0435 13.2839C43.3607 13.2675 43.6779 13.2592 43.9978 13.2592H52.4065C57.2465 13.2592 61.646 15.2448 64.8346 18.4471C68.023 21.6493 70 26.0711 70 30.9292C70 33.4229 69.475 35.804 68.5316 37.9683C67.5527 40.2148 66.1225 42.2197 64.3643 43.8619C64.1045 44.1036 64.0744 45.4411 64.0498 46.7813C64.0061 48.9207 63.9623 51.0793 62.4611 51.7658C60.8204 52.5156 58.4907 51.3264 56.2156 50.1537L56.1555 50.1235C54.6652 49.3545 53.205 48.5993 52.4092 48.5993H44.0006C39.1606 48.5993 34.761 46.6137 31.5725 43.4114C29.374 41.2034 27.747 38.4103 26.9512 35.296L26.9483 35.2933ZM40.7793 13.5532C39.9206 10.4663 38.1268 7.75839 35.7232 5.77308C33.0763 3.58423 29.6856 2.26325 26.0021 2.26325H17.5934C13.3769 2.26325 9.5404 3.99897 6.76202 6.78921C3.98105 9.58227 2.25837 13.4326 2.25837 17.6677C2.25837 19.8483 2.71229 21.9245 3.53262 23.803C4.383 25.7584 5.63268 27.5078 7.17216 28.9442C8.1265 29.8367 8.16479 31.6494 8.20308 33.4756C8.23316 34.9065 8.2605 36.351 8.47926 36.45C9.13279 36.7493 10.9649 35.8101 12.7641 34.8818L12.8216 34.8488C14.5634 33.9508 16.2725 33.0692 17.5986 33.0692H26.0073C26.2342 33.0692 26.3901 33.0637 26.535 33.0527C26.4503 32.3552 26.4065 31.6439 26.4065 30.9244C26.4065 26.0633 28.3835 21.6446 31.5719 18.4422C34.0383 15.965 37.2267 14.2183 40.7813 13.551L40.7793 13.5532ZM22.0866 26.3264C22.6882 26.4884 23.0437 27.1091 22.8851 27.7133C22.7237 28.3175 22.1057 28.6746 21.5042 28.5153L21.3346 28.4686C20.733 28.3065 20.3775 27.6858 20.5362 27.0816C20.6975 26.4774 21.3155 26.1204 21.9171 26.2797L22.0866 26.3264ZM17.4681 13.4871C17.4681 14.1132 16.9622 14.6213 16.3388 14.6213C15.7153 14.6213 15.2094 14.1133 15.2094 13.4871C15.2094 11.6635 15.9477 10.0102 17.1372 8.81558C18.3349 7.61545 19.9783 6.87393 21.794 6.87393C23.6041 6.87393 25.2503 7.61545 26.4452 8.8101L26.4507 8.81559C27.6402 10.013 28.3758 11.6636 28.3758 13.4843C28.3758 15.7089 26.8882 17.1699 25.3733 18.653C24.1236 19.8779 22.8494 21.1274 22.9151 22.6599C22.9424 23.2833 22.4584 23.8133 21.8404 23.8381C21.2197 23.8655 20.6919 23.3794 20.6673 22.7587C20.5579 20.2129 22.1986 18.6063 23.8037 17.0326C24.9714 15.8902 26.1171 14.7641 26.1171 13.4843C26.1171 12.2815 25.6331 11.1967 24.8538 10.4112C24.069 9.62299 22.9861 9.13963 21.7884 9.13963C20.5908 9.13963 19.5079 9.62848 18.7259 10.4084C17.9438 11.1939 17.4625 12.2815 17.4625 13.4843L17.4681 13.4871Z" fill="#294C82"/>
</svg>
