<svg width="63" height="63" viewBox="0 0 63 63" fill="none" xmlns="http://www.w3.org/2000/svg">
<path fill-rule="evenodd" clip-rule="evenodd" d="M35.8425 21.1248C31.9399 21.1248 28.1961 22.6742 25.4355 25.4347C22.6775 28.1953 21.1257 31.9367 21.1257 35.8393C21.1257 39.742 22.6775 43.486 25.4355 46.2466C28.196 49.0071 31.9399 50.5565 35.8425 50.5565C39.7452 50.5565 43.489 49.0071 46.247 46.2466C49.0075 43.486 50.5594 39.7446 50.5594 35.8393C50.5594 31.9366 49.0075 28.1953 46.247 25.4347C43.489 22.6742 39.7451 21.1248 35.8425 21.1248ZM35.0743 30.2721C35.0743 29.847 35.4174 29.5038 35.8425 29.5038C36.2676 29.5038 36.6108 29.847 36.6108 30.2721V31.1966C37.9296 31.4706 39.0666 32.4898 39.0666 33.8624H39.064C39.064 34.2875 38.7209 34.6307 38.2958 34.6307C37.8733 34.6307 37.5275 34.2875 37.5275 33.8624C37.5275 32.792 35.6454 32.2081 34.5852 33.0608L34.5877 33.0634C34.3291 33.2503 34.1703 33.5448 34.155 33.8624C34.155 35.9367 39.064 34.057 39.064 37.8163C39.064 39.1889 37.9296 40.2081 36.6082 40.4821V41.4066L36.6108 41.4092C36.6108 41.8343 36.2676 42.1774 35.8425 42.1774C35.4174 42.1774 35.0743 41.8343 35.0743 41.4092V40.4847C33.7555 40.2107 32.6185 39.1914 32.6185 37.8189V37.8163C32.6185 37.3938 32.9642 37.048 33.3867 37.048C33.8118 37.048 34.155 37.3937 34.155 37.8163C34.155 38.8867 36.0372 39.4706 37.0973 38.6179C37.356 38.4309 37.5147 38.1364 37.5275 37.8163C37.5275 35.742 32.6185 37.6217 32.6185 33.8624C32.6185 32.4897 33.7529 31.4706 35.0743 31.1966V30.2721ZM35.8425 22.9919C39.251 22.9919 42.5188 24.344 44.9306 26.7512C47.3403 29.161 48.695 32.4286 48.695 35.8368C48.6976 39.2453 47.3455 42.5132 44.9357 44.9225C42.526 47.3348 39.2584 48.6869 35.8503 48.6895C32.4419 48.6895 29.174 47.3348 26.7648 44.925C24.3551 42.5153 23.0005 39.2476 23.0005 35.8394C23.0005 32.4335 24.3526 29.1657 26.7623 26.7584C29.1694 24.3486 32.437 22.9939 35.8431 22.9914L35.8425 22.9919ZM35.8425 24.5284C38.8438 24.5284 41.7222 25.7167 43.8424 27.8396C45.9653 29.96 47.1586 32.8358 47.1586 35.837C47.1612 38.8383 45.9704 41.7141 43.8475 43.837C41.7271 45.9599 38.8514 47.1507 35.8503 47.1532C32.849 47.1532 29.9733 45.9625 27.8504 43.8395C25.7275 41.7191 24.5368 38.8408 24.5368 35.8395C24.5342 32.8408 25.725 29.9624 27.8453 27.8422C29.9657 25.7192 32.844 24.5284 35.8425 24.5284ZM45.2276 22.5694C41.0202 19.5937 35.6505 18.7922 30.7541 20.4055C25.8604 22.0188 22.022 25.8575 20.4086 30.7511C18.7928 35.6474 19.5968 41.0174 22.5725 45.2249C21.3126 46.4131 19.3357 46.3849 18.109 45.1634L2.47056 29.5266C1.22604 28.2744 1.22604 26.2488 2.47056 24.9991L24.9977 2.4716C25.5892 1.85444 26.4112 1.51388 27.264 1.53177L42.8926 1.54202V1.53945C44.6595 1.54458 46.0885 2.97608 46.0936 4.74305L46.1038 20.372V20.3694C46.1192 21.1914 45.8037 21.9855 45.2276 22.5694ZM23.5225 46.4389C21.6455 48.1034 18.7979 48.0215 17.0232 46.2494L1.38475 30.6126C-0.461582 28.7611 -0.461582 25.765 1.38475 23.9107L23.9119 1.38577C24.7928 0.484354 26.004 -0.0149972 27.264 0.000343292L42.8926 0.0105859C44.1474 0.00802527 45.351 0.507387 46.2396 1.39346C47.1282 2.28209 47.625 3.48566 47.625 4.74305L47.6352 20.3719L47.6327 20.3694C47.648 21.5345 47.2229 22.6588 46.4419 23.5192C49.5533 26.1978 51.5379 29.9546 51.9937 34.0366C52.4496 38.1161 51.3459 42.2182 48.9029 45.517L51.4022 48.0164C51.8709 47.5478 52.2396 47.2097 52.9925 47.2097L52.9899 47.2072C53.4919 47.2072 53.9707 47.4069 54.3267 47.7603L61.6428 55.0765H61.6402C63.4533 56.8896 63.4533 59.8269 61.6402 61.6401C59.8272 63.4534 56.8899 63.4532 55.0767 61.6401L47.7633 54.3239C47.0257 53.5864 47.0257 52.3905 47.7633 51.653L48.0193 51.3969L45.5174 48.9001C42.2192 51.3431 38.1168 52.4494 34.0372 51.9936C29.9553 51.5352 26.1986 49.5528 23.5225 46.4389ZM47.9246 46.7103L50.3138 49.0996L49.1025 50.3109L46.7133 47.9216C47.1384 47.5401 47.543 47.1355 47.9246 46.7103ZM48.8491 53.2353V53.2379C48.7133 53.0996 48.7133 52.8768 48.8491 52.7385L52.7415 48.846C52.8798 48.7103 53.1 48.7103 53.2383 48.846L60.5544 56.1623C61.7528 57.3761 61.7477 59.3325 60.539 60.5387C59.3329 61.7475 57.3764 61.7526 56.1626 60.5541L48.8465 53.2379L48.8491 53.2353ZM31.021 11.3913C31.021 13.504 32.2937 15.4067 34.2451 16.2159C36.199 17.0252 38.4447 16.577 39.9377 15.084C41.4332 13.5911 41.8788 11.3427 41.0722 9.39127C40.2629 7.43988 38.3578 6.16715 36.2451 6.16715C33.3591 6.16715 31.021 8.50519 31.021 11.3913ZM32.5575 11.3913C32.5575 12.8817 33.4564 14.2261 34.8341 14.7972C36.2118 15.3683 37.7969 15.0533 38.852 13.9982C39.907 12.9431 40.222 11.358 39.651 9.97768C39.0825 8.59992 37.7355 7.70362 36.2451 7.70362C35.2669 7.70362 34.3296 8.09031 33.6382 8.78171C32.9468 9.47315 32.5575 10.413 32.5575 11.3913Z" fill="#294C82"/>
</svg>
