<svg width="50" height="50" viewBox="0 0 50 50" fill="none" xmlns="http://www.w3.org/2000/svg">
<path d="M6.04356 20.5301H19.2951C23.4167 20.5215 26.7646 17.165 26.7646 13.0434C26.7646 8.92189 23.4082 5.56509 19.2862 5.56509C19.121 5.56509 18.9645 5.58248 18.7993 5.59118C18.9123 5.33901 18.9819 5.06076 18.9819 4.77378C18.9819 4.24336 18.7645 3.75642 18.4341 3.39987C18.7645 3.03466 18.9819 2.55643 18.9819 2.02596C18.9819 0.904265 18.0689 -6.10352e-05 16.9559 -6.10352e-05H6.0433C4.93028 -6.10352e-05 4.01727 0.904265 4.01727 2.02596C4.01727 2.55638 4.22596 3.03463 4.56509 3.39987C4.22596 3.75638 4.01727 4.24331 4.01727 4.77378C4.01727 5.30424 4.22596 5.78245 4.56509 6.14768C4.22596 6.50419 4.01727 6.99113 4.01727 7.52159C4.01727 8.05205 4.22596 8.53026 4.56509 8.88676C4.22596 9.25197 4.01727 9.7302 4.01727 10.2607C4.01727 10.7911 4.22596 11.2693 4.56509 11.6346C4.22596 11.9998 4.01727 12.478 4.01727 13.0085C4.01727 13.5389 4.22596 14.0172 4.56509 14.3824C4.22596 14.7476 4.01727 15.2258 4.01727 15.7563C4.01727 16.2868 4.22596 16.765 4.56509 17.1302C4.22596 17.4954 4.01727 17.9736 4.01727 18.5041C4.01727 19.6171 4.93055 20.5301 6.04356 20.5301ZM19.939 8.22631V8.78282H21.0868C21.452 8.78282 21.739 9.07846 21.739 9.43499C21.739 9.79152 21.452 10.0872 21.0868 10.0872H19.2868C18.6521 10.0872 18.1304 10.6089 18.1304 11.2436C18.1304 11.8784 18.6521 12.3914 19.2868 12.3914C20.6433 12.3914 21.7389 13.4958 21.7389 14.8523C21.7389 15.9826 20.9737 16.9218 19.939 17.2087V17.8696C19.939 18.2348 19.6433 18.5218 19.2868 18.5218C18.9303 18.5218 18.6346 18.2348 18.6346 17.8696V17.3131H17.4781C17.1216 17.3131 16.826 17.0174 16.826 16.6609C16.826 16.3044 17.1216 16.0087 17.4781 16.0087H19.2868C19.9215 16.0087 20.4346 15.487 20.4346 14.8523C20.4346 14.2175 19.9215 13.6958 19.2868 13.6958C17.9303 13.6958 16.826 12.6001 16.826 11.2437C16.826 10.1133 17.5912 9.17415 18.6346 8.87854V8.22637C18.6346 7.86116 18.9216 7.57419 19.2868 7.57419C19.652 7.57419 19.939 7.86108 19.939 8.22631ZM6.04356 1.30446H16.9561C17.3474 1.30446 17.6779 1.62619 17.6779 2.0262C17.6779 2.42621 17.3474 2.74793 16.9561 2.74793H6.04356C5.65227 2.74793 5.32183 2.42621 5.32183 2.0262C5.32183 1.62619 5.65225 1.30446 6.04356 1.30446ZM6.04356 4.05222H16.9561C17.3474 4.05222 17.6779 4.37395 17.6779 4.77396C17.6779 5.17396 17.3474 5.49569 16.9561 5.49569H6.04356C5.65227 5.49569 5.32183 5.16527 5.32183 4.77396C5.32183 4.38265 5.65225 4.05222 6.04356 4.05222ZM6.04356 6.79998H15.1825C14.5738 7.19997 14.0347 7.6782 13.5652 8.23471H6.04345C5.64346 8.23471 5.32172 7.91298 5.32172 7.52172C5.32172 7.13045 5.64356 6.79998 6.04356 6.79998ZM6.04356 9.53906H12.6783C12.4348 9.99122 12.2435 10.4782 12.1044 10.9825H6.04345C5.64346 10.9825 5.32172 10.6608 5.32172 10.2608C5.32172 9.86079 5.64356 9.53906 6.04356 9.53906ZM6.04356 12.2868H11.8435C11.8174 12.539 11.8 12.7912 11.8 13.0433C11.8 13.2781 11.8174 13.5042 11.8348 13.7303H6.04377C5.64378 13.7303 5.32204 13.4086 5.32204 13.0086C5.32204 12.6085 5.64356 12.2868 6.04356 12.2868ZM6.04356 15.0346H12.0783C12.2175 15.5389 12.4088 16.0258 12.6435 16.478H6.0439C5.64391 16.478 5.32216 16.1563 5.32216 15.7563C5.32216 15.3563 5.64356 15.0346 6.04356 15.0346ZM6.04356 17.7823H13.4958C13.9479 18.3388 14.487 18.8171 15.0784 19.2258H6.04401C5.64402 19.2258 5.32227 18.9041 5.32227 18.5041C5.32227 18.1041 5.64356 17.7823 6.04356 17.7823Z" fill="white"/>
<path d="M49.3466 48.6945H1.30434V0.652294C1.30434 0.295784 1.0087 0.00012207 0.652172 0.00012207C0.295645 0.00012207 0 0.295767 0 0.652294V49.3467C0 49.7033 0.295645 49.9989 0.652172 49.9989H49.3466C49.7031 49.9989 49.9988 49.7033 49.9988 49.3467C49.9988 48.9902 49.7031 48.6945 49.3466 48.6945Z" fill="white"/>
<path d="M4.19096 40.8689C4.39965 40.8689 4.60834 40.7645 4.73878 40.5819L15.9736 23.678H31.5647C31.7647 23.678 31.956 23.5823 32.0864 23.4258L47.8601 2.80886L48.7035 7.74787C48.7557 8.0696 49.034 8.28699 49.347 8.28699C49.3817 8.28699 49.4165 8.28699 49.46 8.27829C49.8165 8.21742 50.0513 7.8783 49.9904 7.52178L48.8948 1.10468C48.8948 1.10468 48.8687 1.03512 48.86 1.00034C48.8426 0.956861 48.8339 0.913384 48.8165 0.878602C48.7904 0.835125 48.7469 0.800346 48.7122 0.765564C48.6948 0.748173 48.6774 0.713392 48.6513 0.696001H48.6426C48.6078 0.669914 48.5556 0.652523 48.5122 0.63513C48.4774 0.617739 48.4426 0.600348 48.4078 0.591653H48.3382C48.2774 0.591653 48.2165 0.574262 48.1556 0.591653H48.147L41.7382 1.68731C41.3817 1.74818 41.1469 2.0873 41.2078 2.44382C41.2687 2.80035 41.6078 3.04379 41.9643 2.97424L46.7381 2.15684L31.2605 22.3737H15.6349C15.4175 22.3737 15.2088 22.4867 15.0957 22.6606L3.67007 39.86C3.47007 40.1644 3.55703 40.5644 3.85267 40.7644C3.96571 40.8339 4.08745 40.8774 4.20918 40.8774L4.19096 40.8689Z" fill="white"/>
<path d="M41.2944 15.1042C40.9379 15.1042 40.6423 15.3998 40.6423 15.7564V45.4249C40.6423 45.7901 40.9379 46.0771 41.2944 46.0771H45.7987C46.1639 46.0771 46.4509 45.7901 46.4509 45.4249V15.7564C46.4509 15.3998 46.1639 15.1042 45.7987 15.1042H41.2944Z" fill="white"/>
<path d="M33.6597 25.9561C33.3032 25.9561 33.0076 26.2518 33.0076 26.6083V45.4249C33.0076 45.7901 33.3032 46.0771 33.6597 46.0771H38.1727C38.5292 46.0771 38.8249 45.7902 38.8249 45.4249V26.6083C38.8249 26.2518 38.5292 25.9561 38.1727 25.9561H33.6597Z" fill="white"/>
<path d="M26.0255 29.2517C25.669 29.2517 25.3734 29.5474 25.3734 29.9039V45.4254C25.3734 45.7907 25.669 46.0776 26.0255 46.0776H30.5385C30.895 46.0776 31.1906 45.7907 31.1906 45.4254V29.9039C31.1906 29.5474 30.895 29.2517 30.5385 29.2517H26.0255Z" fill="white"/>
<path d="M18.3997 29.2517H22.904C23.2648 29.2517 23.5561 29.6126 23.5561 29.9039V45.4254C23.5561 45.7863 23.2648 46.0776 22.904 46.0776H18.3997C18.0388 46.0776 17.7475 45.7168 17.7475 45.4254V29.9039C17.7475 29.543 18.0388 29.2517 18.3997 29.2517Z" fill="white"/>
<path d="M10.765 36.0339C10.3998 36.0339 10.1128 36.3295 10.1128 36.686V45.4249C10.1128 45.7901 10.3997 46.0771 10.765 46.0771H15.2692C15.6344 46.0771 15.9214 45.7901 15.9214 45.4249V36.686C15.9214 36.3295 15.6345 36.0339 15.2692 36.0339H10.765Z" fill="white"/>
</svg>
