<svg width="51" height="54" viewBox="0 0 51 54" fill="none" xmlns="http://www.w3.org/2000/svg">
<path d="M46.024 45.9526H21.4267C20.8054 44.4049 19.5306 43.1736 17.9669 42.6073L17.9692 14.277C17.9692 9.90923 14.4153 6.35541 10.0476 6.35541H2.69879C1.41252 6.35541 0.300523 7.23585 0.0574617 8.44646C-0.107621 9.23522 0.0872684 10.0399 0.587101 10.6544C1.09152 11.2758 1.84126 11.6312 2.64376 11.6312H9.62332C11.3177 11.6312 12.6934 13.0092 12.6934 14.7013V43.2746C11.0953 44.3637 10.1094 46.1842 10.1094 48.1262C10.1094 51.3659 12.7439 54.0005 15.9838 54.0005C18.0198 54.0005 19.8861 52.9412 20.9569 51.2285H45.9186C47.3608 51.2285 48.5645 50.1509 48.6586 48.7774C48.7113 48.0093 48.4339 47.2619 47.8905 46.7208C47.3861 46.2255 46.7233 45.9526 46.024 45.9526ZM9.62059 10.4572H2.64103C2.19393 10.4572 1.77661 10.26 1.49692 9.91382C1.21491 9.5676 1.11402 9.13198 1.20803 8.68026C1.3433 8.01306 1.96926 7.52928 2.69838 7.52928H10.0471C13.7684 7.52928 16.7949 10.5558 16.7949 14.277V42.3044C16.7352 42.2953 16.671 42.2975 16.6114 42.2907C16.4899 42.2792 16.3707 42.27 16.2469 42.2632C16.1345 42.2586 16.0222 42.2563 15.9075 42.2586C15.8112 42.2609 15.7149 42.2677 15.6164 42.2746C15.1509 42.3044 14.6901 42.3893 14.243 42.5268C14.1627 42.5498 14.0848 42.5727 14.0068 42.6002C13.961 42.6162 13.9128 42.6277 13.867 42.6438V14.7032C13.867 12.3622 11.9616 10.4592 9.62293 10.4592L9.62059 10.4572ZM15.9833 52.8265C13.3924 52.8265 11.283 50.717 11.283 48.1262C11.283 46.4799 12.1634 44.9323 13.5804 44.0863C13.7363 43.9945 13.8991 43.9143 14.0642 43.8409C14.1513 43.8019 14.2407 43.7698 14.3279 43.7354C14.3967 43.7102 14.4654 43.685 14.5365 43.6644C14.6557 43.6254 14.7773 43.591 14.8988 43.5612C14.9148 43.5566 14.9309 43.5543 14.9469 43.552C15.2267 43.4901 15.5087 43.4534 15.7907 43.4397C15.8159 43.4374 15.8411 43.4351 15.8664 43.4351C15.9695 43.4305 16.0704 43.4374 16.1713 43.4397C16.2745 43.4443 16.3777 43.4488 16.4808 43.4603C16.5519 43.4672 16.6253 43.4741 16.6941 43.4855C16.8752 43.513 17.054 43.5474 17.226 43.5956C18.7507 44.0129 19.9911 45.212 20.4657 46.7184C20.6102 47.1793 20.6835 47.6539 20.6835 48.1285C20.6835 48.9195 20.4932 49.6715 20.1172 50.364C19.2941 51.8841 17.7097 52.8287 15.9833 52.8287L15.9833 52.8265ZM47.4843 48.6971C47.4316 49.4445 46.73 50.0544 45.916 50.0544H21.5319C21.5869 49.8962 21.635 49.738 21.674 49.5752C21.6763 49.5638 21.6786 49.55 21.6832 49.5362C21.7313 49.3391 21.768 49.1396 21.7955 48.9378L21.8162 48.7728C21.8391 48.5595 21.8575 48.344 21.8575 48.1262C21.8575 47.968 21.8506 47.8097 21.8368 47.6515C21.8322 47.5988 21.8254 47.5461 21.8185 47.4933C21.807 47.3879 21.7955 47.2824 21.7772 47.1792C21.7749 47.1632 21.7726 47.1448 21.7703 47.1288H46.0212C46.411 47.1288 46.7825 47.2824 47.0599 47.5552C47.3625 47.8579 47.5116 48.2637 47.4817 48.6971L47.4843 48.6971Z" fill="white"/>
<path d="M15.9832 45.5422C14.5571 45.5422 13.3993 46.7024 13.3993 48.1262C13.3993 49.5524 14.5595 50.7102 15.9832 50.7102C17.4094 50.7102 18.5672 49.55 18.5672 48.1262C18.5672 46.7001 17.407 45.5422 15.9832 45.5422ZM15.9832 49.5386C15.206 49.5386 14.5732 48.9058 14.5732 48.1286C14.5732 47.3513 15.206 46.7185 15.9832 46.7185C16.7605 46.7185 17.3933 47.3513 17.3933 48.1286C17.3933 48.9058 16.7605 49.5386 15.9832 49.5386Z" fill="white"/>
<path d="M47.2918 18.819H30.5658C30.2425 18.819 29.9788 19.0827 29.9788 19.406C29.9788 19.7293 30.2425 19.993 30.5658 19.993H47.2918C47.6151 19.993 47.8788 19.7293 47.8788 19.406C47.8788 19.0827 47.6151 18.819 47.2918 18.819Z" fill="white"/>
<path d="M47.2918 27.0853H30.5658C30.2425 27.0853 29.9788 27.3489 29.9788 27.6722C29.9788 27.9955 30.2425 28.2592 30.5658 28.2592H47.2918C47.6151 28.2592 47.8788 27.9955 47.8788 27.6722C47.8788 27.3489 47.6151 27.0853 47.2918 27.0853Z" fill="white"/>
<path d="M27.7019 33.209H23.4166C23.0934 33.209 22.8297 33.4727 22.8297 33.796V38.0813C22.8297 38.4046 23.0934 38.6683 23.4166 38.6683H27.7019C28.0252 38.6683 28.2889 38.4046 28.2889 38.0813V33.796C28.2889 33.4727 28.0252 33.209 27.7019 33.209ZM27.115 37.4943H24.0036V34.383H27.115V37.4943Z" fill="white"/>
<path d="M47.2918 35.3508H30.5658C30.2425 35.3508 29.9788 35.6145 29.9788 35.9378C29.9788 36.2611 30.2425 36.5248 30.5658 36.5248H47.2918C47.6151 36.5248 47.8788 36.2611 47.8788 35.9378C47.8788 35.6145 47.6151 35.3508 47.2918 35.3508Z" fill="white"/>
<path d="M50.0182 5.77558C50.0137 5.72285 50.0045 5.6747 49.9884 5.62426C49.9816 5.60592 49.977 5.58757 49.9678 5.56923C49.938 5.50733 49.9036 5.44771 49.8532 5.39727L44.6278 0.17196C44.5774 0.121517 44.5178 0.0848311 44.4559 0.0573202C44.4398 0.0504422 44.4215 0.0435636 44.4031 0.0389777C44.3527 0.0206351 44.3 0.0114638 44.2472 0.00687846C44.2358 0.00687846 44.2243 0 44.2128 0H21.2709C20.9476 0 20.6839 0.263675 20.6839 0.586962V42.8388C20.6839 43.1621 20.9476 43.4258 21.2709 43.4258H49.438C49.7613 43.4258 50.0249 43.1621 50.0249 42.8388V5.8121C50.0249 5.79834 50.0182 5.78934 50.0182 5.77558ZM48.0212 5.22531H44.7998V2.00389L48.0212 5.22531ZM21.858 42.252V1.1741H43.626V5.81245C43.626 6.13573 43.8897 6.39941 44.213 6.39941H48.8514V42.2522L21.858 42.252Z" fill="white"/>
<path d="M27.7019 24.9434H23.4166C23.0934 24.9434 22.8297 25.2071 22.8297 25.5304V29.8157C22.8297 30.139 23.0934 30.4026 23.4166 30.4026H27.7019C28.0252 30.4026 28.2889 30.139 28.2889 29.8157V25.5304C28.2889 25.2071 28.0252 24.9434 27.7019 24.9434ZM27.115 29.2287H24.0036V26.1173H27.115V29.2287Z" fill="white"/>
<path d="M35.1147 14.8459C35.1904 14.8803 35.2706 14.9032 35.3532 14.9032C35.3554 14.9032 35.3554 14.9009 35.3577 14.9009C35.438 14.9009 35.5136 14.8803 35.587 14.8459C35.5962 14.8413 35.6054 14.8436 35.6145 14.839L41.6837 11.8033C41.8832 11.7047 42.0093 11.5007 42.0093 11.2783V5.22551V5.22092V5.21634C42.0093 5.20487 42.0047 5.19341 42.0024 5.18194C42.0001 5.14067 41.9932 5.10169 41.9818 5.06272C41.9772 5.04438 41.968 5.02603 41.9611 5.00769C41.9497 4.97559 41.9336 4.94579 41.9176 4.91827C41.9061 4.89993 41.8947 4.88388 41.8809 4.86783C41.8603 4.84261 41.8396 4.81968 41.8167 4.79676C41.8006 4.783 41.7846 4.76924 41.7663 4.75549C41.7571 4.74861 41.7479 4.73944 41.7364 4.73256C41.7181 4.72109 41.6975 4.71422 41.6791 4.70504C41.6677 4.69817 41.6562 4.68899 41.6447 4.68441L35.5755 2.17838C35.4311 2.11876 35.2706 2.11876 35.1262 2.17838L29.057 4.68441C29.0432 4.68899 29.034 4.69817 29.0226 4.70504C29.0042 4.71422 28.9836 4.72109 28.9653 4.73256C28.9538 4.73944 28.9469 4.74861 28.9355 4.75549C28.9171 4.76924 28.9011 4.783 28.885 4.79676C28.8621 4.81739 28.8392 4.84261 28.8208 4.86783C28.8071 4.88388 28.7956 4.89993 28.7841 4.91827C28.7658 4.94808 28.752 4.97789 28.7406 5.00769C28.7337 5.02603 28.7245 5.04208 28.7199 5.06272C28.7085 5.1017 28.7039 5.14067 28.6993 5.18194C28.697 5.19341 28.6947 5.20487 28.6924 5.21634V5.22092V5.22551V11.2806C28.6924 11.503 28.8185 11.7071 29.018 11.8057L35.0872 14.8391C35.0941 14.8437 35.1032 14.8414 35.1101 14.8437L35.1147 14.8459ZM38.8039 7.06631V8.42595L38.0358 8.81343V7.41711L38.6938 7.11675L38.8062 7.06631L38.8039 7.06631ZM35.9401 13.3644V8.37294L36.8596 7.95336V9.76466C36.8596 9.96873 36.965 10.1567 37.1393 10.2645C37.2333 10.3218 37.3411 10.3516 37.4465 10.3516C37.5359 10.3516 37.6277 10.331 37.7102 10.2897L39.6522 9.31296C39.8494 9.21207 39.9755 9.0103 39.9755 8.7879V6.52945L40.833 6.13738V10.9179L35.9379 13.3666L35.9401 13.3644ZM35.3532 3.35377L39.948 5.24995L35.3532 7.34787L32.2235 5.91944L30.7584 5.24995L35.3532 3.35377ZM29.8711 6.13726L34.7639 8.37277V13.3642L29.8711 10.9178L29.8734 6.13955L29.8711 6.13726Z" fill="white"/>
<path d="M27.7019 16.6778H23.4166C23.0934 16.6778 22.8297 16.9415 22.8297 17.2648V21.55C22.8297 21.8733 23.0934 22.137 23.4166 22.137H27.7019C28.0252 22.137 28.2889 21.8733 28.2889 21.55V17.2648C28.2889 16.9415 28.0252 16.6778 27.7019 16.6778ZM27.115 20.9631H24.0036V17.8517H27.115V20.9631Z" fill="white"/>
</svg>
